HIERARCHY
ROOT Hips
{
  OFFSET -0.224121 16.9891 -0.370166
  CHANNELS 6 Xposition Yposition Zposition Zrotation Xrotation Yrotation
  JOINT LHipJoint
  {
    OFFSET 0 0 0
    CHANNELS 6 Xposition Yposition Zposition Zrotation Xrotation Yrotation
    JOINT LeftUpLeg
    {
      OFFSET 1.36306 -1.79463 0.83929
      CHANNELS 6 Xposition Yposition Zposition Zrotation Xrotation Yrotation
      JOINT LeftLeg
      {
        OFFSET 2.44811 -6.72613 0
        CHANNELS 6 Xposition Yposition Zposition Zrotation Xrotation Yrotation
        JOINT LeftFoot
        {
          OFFSET 2.5622 -7.03959 0
          CHANNELS 6 Xposition Yposition Zposition Zrotation Xrotation Yrotation
          JOINT LeftToeBase
          {
            OFFSET 0.15764 -0.43311 2.32255
            CHANNELS 6 Xposition Yposition Zposition Zrotation Xrotation Yrotation
            End Site
            {
              OFFSET 0 0 0
            }
          }
        }
      }
    }
  }
  JOINT RHipJoint
  {
    OFFSET 0 0 0
    CHANNELS 6 Xposition Yposition Zposition Zrotation Xrotation Yrotation
    JOINT RightUpLeg
    {
      OFFSET -1.30552 -1.79463 0.83929
      CHANNELS 6 Xposition Yposition Zposition Zrotation Xrotation Yrotation
      JOINT RightLeg
      {
        OFFSET -2.54253 -6.98555 0
        CHANNELS 6 Xposition Yposition Zposition Zrotation Xrotation Yrotation
        JOINT RightFoot
        {
          OFFSET -2.56826 -7.05623 0
          CHANNELS 6 Xposition Yposition Zposition Zrotation Xrotation Yrotation
          JOINT RightToeBase
          {
            OFFSET -0.16473 -0.45259 2.36315
            CHANNELS 6 Xposition Yposition Zposition Zrotation Xrotation Yrotation
            End Site
            {
              OFFSET 0 0 0
            }
          }
        }
      }
    }
  }
  JOINT LowerBack
  {
    OFFSET 0 0 0
    CHANNELS 6 Xposition Yposition Zposition Zrotation Xrotation Yrotation
    JOINT Spine
    {
      OFFSET 0.02827 2.03559 -0.19338
      CHANNELS 6 Xposition Yposition Zposition Zrotation Xrotation Yrotation
      JOINT Spine1
      {
        OFFSET 0.05672 2.04885 -0.04275
        CHANNELS 6 Xposition Yposition Zposition Zrotation Xrotation Yrotation
        JOINT Neck
        {
          OFFSET 0 0 0
          CHANNELS 6 Xposition Yposition Zposition Zrotation Xrotation Yrotation
          JOINT Neck1
          {
            OFFSET -0.05417 1.74624 0.17202
            CHANNELS 6 Xposition Yposition Zposition Zrotation Xrotation Yrotation
            JOINT Head
            {
              OFFSET 0.10407 1.76136 -0.12397
              CHANNELS 6 Xposition Yposition Zposition Zrotation Xrotation Yrotation
              End Site
              {
                OFFSET 0 0 0
              }
            }
          }
        }
        JOINT LeftShoulder
        {
          OFFSET 0 0 0
          CHANNELS 6 Xposition Yposition Zposition Zrotation Xrotation Yrotation
          JOINT LeftArm
          {
            OFFSET 3.36241 1.20089 -0.31121
            CHANNELS 6 Xposition Yposition Zposition Zrotation Xrotation Yrotation
            JOINT LeftForeArm
            {
              OFFSET 4.983 0 0
              CHANNELS 6 Xposition Yposition Zposition Zrotation Xrotation Yrotation
              JOINT LeftHand
              {
                OFFSET 3.48356 0 0
                CHANNELS 6 Xposition Yposition Zposition Zrotation Xrotation Yrotation
                JOINT LeftFingerBase
                {
                  OFFSET 0 0 0
                  CHANNELS 6 Xposition Yposition Zposition Zrotation Xrotation Yrotation
                  JOINT LeftHandIndex1
                  {
                    OFFSET 0.71526 0 0
                    CHANNELS 6 Xposition Yposition Zposition Zrotation Xrotation Yrotation
                    End Site
                    {
                      OFFSET 0 0 0
                    }
                  }
                }
                JOINT LThumb
                {
                  OFFSET 0 0 0
                  CHANNELS 6 Xposition Yposition Zposition Zrotation Xrotation Yrotation
                  End Site
                  {
                    OFFSET 0 0 0
                  }
                }
              }
            }
          }
        }
        JOINT RightShoulder
        {
          OFFSET 0 0 0
          CHANNELS 6 Xposition Yposition Zposition Zrotation Xrotation Yrotation
          JOINT RightArm
          {
            OFFSET -3.1366 1.37405 -0.40465
            CHANNELS 6 Xposition Yposition Zposition Zrotation Xrotation Yrotation
            JOINT RightForeArm
            {
              OFFSET -5.2419 0 0
              CHANNELS 6 Xposition Yposition Zposition Zrotation Xrotation Yrotation
              JOINT RightHand
              {
                OFFSET -3.44417 0 0
                CHANNELS 6 Xposition Yposition Zposition Zrotation Xrotation Yrotation
                JOINT RightFingerBase
                {
                  OFFSET 0 0 0
                  CHANNELS 6 Xposition Yposition Zposition Zrotation Xrotation Yrotation
                  JOINT RightHandIndex1
                  {
                    OFFSET -0.62253 0 0
                    CHANNELS 6 Xposition Yposition Zposition Zrotation Xrotation Yrotation
                    End Site
                    {
                      OFFSET 0 0 0
                    }
                  }
                }
                JOINT RThumb
                {
                  OFFSET 0 0 0
                  CHANNELS 6 Xposition Yposition Zposition Zrotation Xrotation Yrotation
                  End Site
                  {
                    OFFSET 0 0 0
                  }
                }
              }
            }
          }
        }
      }
    }
  }
}
MOTION
Frames:	5
Frame Time:	0.0416667
-0.224121 16.9891 -0.370166 -0.0111396 8.63947 -1.34464 0 0 0 -0.299681 5.35791 18.0368 1.36306 -1.79463 0.83929 -15.3245 -26.0439 -14.2109 2.44811 -6.72613 4.44089e-016 -2.1471 31.6615 69.743 2.5622 -7.03959 -4.44089e-016 -3.2381 16.0682 2.15443 0.15764 -0.43311 2.32255 5.06255e-007 -4.6095e-006 5.78835e-007 0 0 0 -8.85582 0.425549 -20.6242 -1.30552 -1.79463 0.83929 42.6624 -17.6844 16.801 -2.54253 -6.98555 -8.88178e-016 -8.05376 54.7521 -22.9396 -2.56826 -7.05623 0 6.14474 9.27487 1.81805 -0.16473 -0.45259 2.36315 -5.87535e-008 2.69279e-006 -2.16242e-006 0 0 0 -1.93281 -2.12354 0.12108 0.02827 2.03559 -0.19338 10.4882 21.9551 -6.69347 0.05672 2.04885 -0.04275 -3.32599 -5.86249 -5.72762 0 0 0 -1.00716 -9.92053 -0.0272228 -0.05417 1.74624 0.17202 2.43774 26.9012 -1.27783 0.10407 1.76136 -0.12397 7.96484e-007 8.81511e-008 2.92306e-007 0 0 0 8.77997 -7.02858 10.5445 3.36241 1.20089 -0.31121 -81.2986 -2.26237 5.25452 4.983 0 8.88178e-016 -3.64133 27.8103 -75.1487 3.48356 0 0 -29.7153 -9.15609 15.097 0 0 0 -0.121022 -8.66108e-007 -1.14814 0.71526 0 -1.77636e-015 6.36111e-015 0 -0 0 0 0 1.59028e-015 6.36111e-015 9.54166e-015 0 0 0 -16.0232 -5.26746 -15.507 -3.1366 1.37405 -0.40465 82.1364 8.33897 -6.14687 -5.2419 -1.77636e-015 -1.77636e-015 38.7665 20.4725 63.5169 -3.44417 -2.22045e-016 -1.77636e-015 -2.24467 0.042621 2.35361 0 0 0 0.388201 -1.97459e-007 2.4941 -0.62253 2.22045e-016 0 1.59028e-015 2.38542e-015 3.18055e-015 0 0 0 -7.95139e-016 3.97569e-015 3.18055e-015 
-0.237998 16.8049 0.10497 -0.903075 8.82227 -0.595596 0 0 0 -0.299681 5.35791 18.0368 1.36306 -1.79463 0.83929 -13.5729 -26.2761 -14.4519 2.44811 -6.72613 -4.44089e-016 -3.82322 33.6505 71.2032 2.5622 -7.03959 6.66134e-016 -5.14362 14.9173 1.83333 0.15764 -0.43311 2.32255 -0.142547 0.928854 0.221429 0 0 0 -8.85582 0.425549 -20.6242 -1.30552 -1.79463 0.83929 49.7963 -24.0549 22.4604 -2.54253 -6.98555 0 -6.41546 65.3124 -33.8931 -2.56826 -7.05623 4.44089e-016 9.57263 11.9644 0.543082 -0.16473 -0.45259 2.36315 -2.72453 2.26935 -2.38662 0 0 0 -1.93281 -2.12354 0.12108 0.02827 2.03559 -0.19338 12.7669 23.0054 -6.55784 0.05672 2.04885 -0.04275 -5.19392 -6.21727 -5.77153 0 0 0 -0.198792 -9.23423 -0.0559543 -0.05417 1.74624 0.17202 3.33609 27.5789 -1.50007 0.10407 1.76136 -0.12397 -0.628497 -5.32457 0.892488 0 0 0 8.75923 -7.83565 10.9324 3.36241 1.20089 -0.31121 -76.93 -0.357186 6.11584 4.983 1.77636e-015 -8.88178e-016 -6.72661 29.4009 -79.1257 3.48356 0 -3.55271e-015 -28.4854 -9.56394 16.3139 0 0 0 -0.121022 -8.66108e-007 -1.14814 0.71526 -4.44089e-016 0 0 6.36111e-015 -0 0 0 0 1.59028e-015 -3.18055e-015 -1.59028e-015 0 0 0 -15.8893 -6.33626 -13.4971 -3.1366 1.37405 -0.40465 79.9698 4.89239 -4.42005 -5.2419 0 -8.88178e-016 37.3216 19.9836 62.4757 -3.44417 9.57567e-016 -1.77636e-015 1.20788 0.145797 3.17574 0 0 0 0.388201 -1.97459e-007 2.4941 -0.62253 4.44089e-016 0 1.39149e-015 4.57205e-015 -1.27222e-014 0 0 0 -4.19321e-031 3.77691e-015 6.36111e-015 
-0.239813 16.5546 0.578552 -1.93653 9.41949 -0.00950129 0 0 0 -0.299681 5.35791 18.0368 1.36306 -1.79463 0.83929 -11.1762 -25.2862 -14.1945 2.44811 -6.72613 0 -5.81286 33.7014 71.0609 2.5622 -7.03959 1.11022e-016 -8.98922 13.1455 1.66791 0.15764 -0.43311 2.32255 0.0528308 -0.347308 -0.081852 0 0 0 -8.85582 0.425549 -20.6242 -1.30552 -1.79463 0.83929 58.1889 -29.1674 28.7785 -2.54253 -6.98555 -1.77636e-015 -7.84442 66.2563 -42.4986 -2.56826 -7.05623 -8.88178e-016 9.15941 13.542 -0.0355408 -0.16473 -0.45259 2.36315 -1.51537 10.7025 -6.15281 0 0 0 -1.93281 -2.12354 0.12108 0.02827 2.03559 -0.19338 13.441 24.0517 -6.5741 0.05672 2.04885 -0.04275 -5.89089 -6.15485 -5.72604 0 0 0 1.34655 -7.43734 -0.146529 -0.05417 1.74624 0.17202 5.10168 29.3505 -1.99983 0.10407 1.76136 -0.12397 -2.84344 -12.7702 2.13139 0 0 0 9.20586 -7.7952 11.8003 3.36241 1.20089 -0.31121 -71.456 2.119 5.76246 4.983 0 0 -8.94364 31.0246 -83.0318 3.48356 0 1.77636e-015 -28.3596 -10.1019 17.3731 0 0 0 -0.121022 -8.66108e-007 -1.14814 0.71526 -1.11022e-015 0 -8.74653e-015 0 -4.77083e-015 0 0 0 -2.38542e-015 -3.18055e-015 -6.36111e-015 0 0 0 -15.4815 -6.78355 -10.9475 -3.1366 1.37405 -0.40465 77.6019 0.119067 -0.11039 -5.2419 0 0 34.2416 18.4221 59.4292 -3.44417 0 -1.77636e-015 7.10495 0.358782 4.33699 0 0 0 0.388201 -1.97459e-007 2.4941 -0.62253 -6.66134e-016 1.77636e-015 -3.97569e-016 2.38542e-015 -3.18055e-015 0 0 0 -2.38542e-015 7.95139e-016 -3.18055e-015 
-0.285549 16.3692 1.14554 -2.66703 10.3796 -0.0587857 0 0 0 -0.299681 5.35791 18.0368 1.36306 -1.79463 0.83929 -8.81136 -22.1856 -11.5649 2.44811 -6.72613 0 -5.24577 30.2481 66.4662 2.5622 -7.03959 -4.44089e-016 -13.7127 11.9769 2.12805 0.15764 -0.43311 2.32255 0.358241 -2.44964 -0.572965 0 0 0 -8.85582 0.425549 -20.6242 -1.30552 -1.79463 0.83929 61.2591 -30.7711 31.6891 -2.54253 -6.98555 0 -9.7587 51.2228 -39.9801 -2.56826 -7.05623 -2.22045e-016 3.54529 14.8839 -0.34266 -0.16473 -0.45259 2.36315 0.481509 18.6622 -9.64348 0 0 0 -1.93281 -2.12354 0.12108 0.02827 2.03559 -0.19338 12.4307 24.4509 -6.62212 0.05672 2.04885 -0.04275 -5.69257 -5.78964 -5.62021 0 0 0 2.81651 -5.47658 -0.239439 -0.05417 1.74624 0.17202 6.82133 31.2786 -2.51465 0.10407 1.76136 -0.12397 -5.09874 -18.7595 3.14324 0 0 0 9.76306 -6.86553 13.1845 3.36241 1.20089 -0.31121 -65.4121 4.28921 4.07615 4.983 0 0 -9.56489 31.9975 -85.7716 3.48356 0 0 -30.0809 -10.578 17.5471 0 0 0 -0.121022 -8.66108e-007 -1.14814 0.71526 -4.44089e-016 0 -7.95139e-015 -3.18055e-015 -3.97569e-016 0 0 0 -1.19271e-015 3.18055e-015 6.75868e-015 0 0 0 -15.3788 -6.70068 -8.78346 -3.1366 1.37405 -0.40465 76.1905 -3.84303 5.53385 -5.2419 1.77636e-015 -4.44089e-016 30.3353 16.3646 54.6963 -3.44417 -8.88178e-016 1.77636e-015 12.8255 0.845032 5.84674 0 0 0 0.388201 -1.97459e-007 2.4941 -0.62253 4.44089e-016 1.77636e-015 -7.94503e-031 4.77083e-015 9.54166e-015 0 0 0 1.59028e-015 0 3.18055e-015 
-0.314992 16.0438 1.87436 -3.71335 11.2875 -0.144756 0 0 0 -0.299681 5.35791 18.0368 1.36306 -1.79463 0.83929 -6.68507 -19.6984 -9.93498 2.44811 -6.72613 0 -4.74915 29.3831 63.9449 2.5622 -7.03959 -7.77156e-016 -18.6138 10.5732 1.80961 0.15764 -0.43311 2.32255 0.575116 -4.02189 -0.933122 0 0 0 -8.85582 0.425549 -20.6242 -1.30552 -1.79463 0.83929 49.3283 -18.4187 21.9119 -2.54253 -6.98555 -8.88178e-016 -2.25675 -1.36359 -25.3705 -2.56826 -7.05623 8.88178e-016 -7.58343 28.176 -3.89493 -0.16473 -0.45259 2.36315 -4.37683 25.783 -15.8053 0 0 0 -1.93281 -2.12354 0.12108 0.02827 2.03559 -0.19338 11.3504 24.508 -6.70044 0.05672 2.04885 -0.04275 -5.20967 -5.01133 -5.5715 0 0 0 2.67236 -4.85901 -0.13153 -0.05417 1.74624 0.17202 6.63379 31.9038 -2.39798 0.10407 1.76136 -0.12397 -4.87248 -19.426 3.44697 0 0 0 10.0005 -5.09901 14.3572 3.36241 1.20089 -0.31121 -61.1282 4.3083 1.19583 4.983 1.77636e-015 0 -7.58185 31.3839 -86.6703 3.48356 0 0 -33.7455 -10.7883 16.4951 0 0 0 -0.121022 -8.66108e-007 -1.14814 0.71526 0 -8.88178e-016 3.27995e-015 -6.36111e-015 6.75868e-015 0 0 0 -5.78339e-015 0 -7.62836e-015 0 0 0 -16.4381 -6.12044 -7.51418 -3.1366 1.37405 -0.40465 75.4815 -5.80003 9.42336 -5.2419 3.55271e-015 0 27.6337 15.9202 51.9205 -3.44417 0 0 14.7576 0.271794 4.567 0 0 0 0.388201 -1.97459e-007 2.4941 -0.62253 -1.77636e-015 0 3.18055e-015 0 -0 0 0 0 -0 -1.59028e-015 -0 
